<?xml version="1.0" encoding="utf-8"?>
<!-- Generator: Adobe Illustrator 24.1.3, SVG Export Plug-In . SVG Version: 6.00 Build 0)  -->
<svg version="1.1" id="Layer_1" xmlns="http://www.w3.org/2000/svg" xmlns:xlink="http://www.w3.org/1999/xlink" x="0px" y="0px"
	 width="6016px" height="3996px" viewBox="0 0 6016 3996" style="enable-background:new 0 0 6016 3996;" xml:space="preserve">
<style type="text/css">
	.st0{fill:#F8ECF5;}
	.st1{fill:#FDD140;}
	.st2{fill:#6B447C;}
	.st3{fill:#F8F8F9;}
	.st4{fill:#CFD5D6;}
	.st5{fill:#784C89;}
	.st6{fill:#CF96C3;}
	.st7{fill:none;stroke:#6B427A;stroke-width:6;stroke-miterlimit:10;}
	.st8{fill:#9964AA;}
	.st9{fill:#93A6A8;}
	.st10{fill:#C2CBCC;}
	.st11{fill:#AAB8B9;}
	.st12{fill:#BACFD0;}
	.st13{fill:#87559A;}
	.st14{fill:#AA76B3;}
	.st15{fill:#FEE84D;}
	.st16{fill:#AC78B4;}
	.st17{fill:#6B427A;}
	.st18{fill:#6B437B;}
	.st19{fill:#FEE499;}
	.st20{fill:#FFD45C;}
	.st21{fill:#FEE9AD;}
	.st22{fill:none;}
	.st23{font-family:'FranklinGothic-Medium';}
	.st24{font-size:240.6732px;}
</style>
<g>
	<g>
		<g>
			<polygon class="st0" points="2137.12,2430.28 1295.44,2430.28 1295.44,3196.82 2005.33,3196.82 2137.12,3065.03 			"/>
			<polygon class="st1" points="2137.12,2430.28 1295.44,2430.28 1295.44,2562.58 2137.12,2562.58 2137.12,2430.28 			"/>
			<circle class="st2" cx="1489.58" cy="2643.59" r="19"/>
			<circle class="st2" cx="1947.47" cy="2643.59" r="19"/>
			<circle class="st2" cx="1604.09" cy="2643.59" r="19"/>
			<circle class="st2" cx="1832.95" cy="2643.59" r="19"/>
			<circle class="st2" cx="2061.81" cy="2643.59" r="19"/>
			<circle class="st2" cx="1718.44" cy="2643.59" r="19"/>
			<circle class="st2" cx="1375.24" cy="2756.2" r="19"/>
			<circle class="st2" cx="1489.58" cy="2756.2" r="19"/>
			<circle class="st2" cx="1947.47" cy="2756.2" r="19"/>
			<circle class="st2" cx="1604.09" cy="2756.2" r="19"/>
			<circle class="st2" cx="1832.95" cy="2756.2" r="19"/>
			<circle class="st2" cx="2061.81" cy="2756.2" r="19"/>
			<circle class="st2" cx="1718.44" cy="2756.2" r="19"/>
			<circle class="st2" cx="1375.24" cy="2874.35" r="19"/>
			<circle class="st2" cx="1489.58" cy="2874.35" r="18.83"/>
			<circle class="st2" cx="1947.47" cy="2874.35" r="18.83"/>
			<circle class="st2" cx="1604.09" cy="2874.35" r="19"/>
			
				<ellipse transform="matrix(0.1602 -0.9871 0.9871 0.1602 -1297.8866 4223.2114)" class="st2" cx="1832.95" cy="2874.35" rx="18.83" ry="18.83"/>
			<circle class="st2" cx="2061.81" cy="2874.35" r="19"/>
			<circle class="st2" cx="1718.44" cy="2874.35" r="18.83"/>
			<circle class="st2" cx="1375.24" cy="2987.83" r="19"/>
			<circle class="st2" cx="1489.58" cy="2987.83" r="19"/>
			<circle class="st2" cx="1947.47" cy="2987.83" r="19"/>
			<circle class="st2" cx="1604.09" cy="2987.83" r="19"/>
			<circle class="st2" cx="1832.95" cy="2987.83" r="19"/>
			<circle class="st2" cx="2061.81" cy="2987.83" r="19"/>
			<circle class="st2" cx="1718.44" cy="2987.83" r="19"/>
			<circle class="st2" cx="1375.24" cy="3100.44" r="19"/>
			<circle class="st2" cx="1489.58" cy="3100.44" r="18.83"/>
			<circle class="st2" cx="1604.09" cy="3100.44" r="19"/>
			<circle class="st2" cx="1718.44" cy="3100.44" r="18.83"/>
			<circle class="st3" cx="1521.53" cy="2498.67" r="19"/>
			<path class="st3" d="M1635.88,2479.85h-58.38c-10.45,1-18.1,10.28-17.1,20.72c0.87,9.06,8.04,16.24,17.1,17.1h58.38
				c10.45,1,19.72-6.66,20.72-17.1s-6.66-19.72-17.1-20.72C1638.29,2479.73,1637.08,2479.73,1635.88,2479.85z"/>
			<path class="st3" d="M1789.77,2479.85h-31.95c-10.45,1-18.1,10.28-17.1,20.72c0.87,9.06,8.04,16.24,17.1,17.1h32.13
				c10.45,1,19.72-6.66,20.72-17.1s-6.66-19.72-17.1-20.72c-1.2-0.12-2.42-0.12-3.62,0H1789.77z"/>
			<path class="st3" d="M1911.02,2479.85h-58.55c-10.45,1-18.1,10.28-17.1,20.72c0.87,9.06,8.04,16.24,17.1,17.1h58.38
				c10.45,1,19.72-6.66,20.72-17.1c1-10.45-6.66-19.72-17.1-20.72c-1.2-0.12-2.42-0.12-3.62,0H1911.02z"/>
			<circle class="st3" cx="1696.67" cy="2498.67" r="19"/>
			<circle class="st2" cx="1380.07" cy="2472.08" r="35.93"/>
			<path class="st4" d="M1361.07,2410.41v58.38c1,10.45,10.28,18.1,20.72,17.1c9.06-0.87,16.24-8.04,17.1-17.1v-58.38
				c1-10.45-6.66-19.72-17.1-20.72c-10.45-1-19.72,6.66-20.72,17.1C1360.96,2408,1360.96,2409.21,1361.07,2410.41z"/>
			<circle class="st2" cx="2052.48" cy="2472.08" r="35.93"/>
			<path class="st4" d="M2033.48,2410.41v58.38c1,10.45,10.28,18.1,20.72,17.1c9.06-0.87,16.24-8.04,17.1-17.1v-58.38
				c1-10.45-6.66-19.72-17.1-20.72c-10.45-1-19.72,6.66-20.72,17.1C2033.37,2408,2033.37,2409.21,2033.48,2410.41z"/>
			<polygon class="st5" points="2005.33,3065.03 2137.12,3065.03 2005.33,3196.82 1881.83,3196.82 			"/>
			<polygon class="st6" points="2005.33,3065.03 2137.12,3065.03 2005.33,3196.82 			"/>
		</g>
		<circle class="st7" cx="1716.28" cy="2793.21" r="656.84"/>
	</g>
	<g>
		<g>
			<rect x="1358.08" y="505.27" class="st8" width="708.67" height="894.23"/>
			<rect x="1396.81" y="543.8" class="st3" width="631.4" height="817.16"/>
			<path class="st9" d="M1819.13,462.38h-66.6v-18.58c-0.32-8.44-7.37-15.04-15.81-14.82h-48.81c-8.51,0-15.41,6.9-15.41,15.41
				c0,0,0,0,0,0v17.98h-66.8c-11.66,0.09-21.21,9.3-21.74,20.95v83.4l18.38,15.41l18.38-15.41l18.38,15.41l18.58-15.41l18.38,15.41
				l18.38-15.41l18.38,15.41l18.38-15.41l18.38,15.41l18.38-15.41l18.38,15.41l18.38-15.41l18.38,15.41l18.38-15.41v-83.4
				C1840.93,471.45,1831.02,462.16,1819.13,462.38z M1712.41,462.38c-6.22,0-11.26-5.04-11.26-11.26s5.04-11.26,11.26-11.26
				c6.22,0,11.26,5.04,11.26,11.26c0,0,0,0,0,0c-0.21,6.07-5.19,10.87-11.26,10.87V462.38z"/>
			<rect x="1584.36" y="484.12" class="st10" width="256.31" height="28.85"/>
			<circle class="st1" cx="1712.41" cy="701.5" r="63.83"/>
			<polygon class="st3" points="1757.27,686.48 1727.43,686.48 1727.43,656.64 1697.59,656.64 1697.59,686.48 1667.55,686.48 
				1667.55,716.33 1697.59,716.33 1697.59,746.36 1727.43,746.36 1727.43,716.33 1757.27,716.33 			"/>
			<path class="st11" d="M1939.87,830.94h-482.19c-4.53,0-8.2-3.67-8.2-8.2c0-4.53,3.67-8.2,8.2-8.2h482.19c4.53,0,8.2,3.67,8.2,8.2
				C1948.08,827.27,1944.4,830.94,1939.87,830.94z"/>
			<path class="st11" d="M1913.2,868.3h-454.53c-4.53,0-8.2-3.67-8.2-8.2s3.67-8.2,8.2-8.2h454.53c4.53,0,8.2,3.67,8.2,8.2
				S1917.73,868.3,1913.2,868.3z"/>
			<path class="st11" d="M1949.76,905.45h-492.07c-4.53,0-8.2-3.67-8.2-8.2s3.67-8.2,8.2-8.2h492.07c4.53,0,8.2,3.67,8.2,8.2
				S1954.29,905.45,1949.76,905.45z"/>
			<path class="st11" d="M1939.87,942.8h-482.19c-4.53,0-8.2-3.67-8.2-8.2c0-4.53,3.67-8.2,8.2-8.2h482.19c4.53,0,8.2,3.67,8.2,8.2
				C1948.08,939.13,1944.4,942.8,1939.87,942.8z"/>
			<path class="st11" d="M1959.44,979.95h-501.76c-4.53,0-8.2-3.67-8.2-8.2c0-4.53,3.67-8.2,8.2-8.2h501.76c4.53,0,8.2,3.67,8.2,8.2
				C1967.64,976.28,1963.97,979.95,1959.44,979.95L1959.44,979.95z"/>
			<path class="st11" d="M1922.48,1016.91h-464.8c-4.53,0-8.2-3.67-8.2-8.2c0-4.53,3.67-8.2,8.2-8.2h464.8c4.53,0,8.2,3.67,8.2,8.2
				C1930.69,1013.23,1927.01,1016.91,1922.48,1016.91z"/>
			<path class="st11" d="M1970.51,1054.45h-512.82c-4.53,0-8.2-3.67-8.2-8.2s3.67-8.2,8.2-8.2h512.82c4.53,0,8.2,3.67,8.2,8.2
				S1975.04,1054.45,1970.51,1054.45z"/>
			<path class="st11" d="M1950.74,1091.8h-493.06c-4.53,0-8.2-3.67-8.2-8.2s3.67-8.2,8.2-8.2h493.06c4.53,0,8.2,3.67,8.2,8.2
				S1955.27,1091.8,1950.74,1091.8z"/>
			<path class="st11" d="M1922.09,1128.96h-464.41c-4.53,0-8.2-3.67-8.2-8.2s3.67-8.2,8.2-8.2h464.41c4.53,0,8.2,3.67,8.2,8.2
				S1926.62,1128.96,1922.09,1128.96z"/>
			<path class="st11" d="M1916.95,1166.31h-459.27c-4.53,0-8.2-3.67-8.2-8.2s3.67-8.2,8.2-8.2h459.27c4.53,0,8.2,3.67,8.2,8.2
				S1921.48,1166.31,1916.95,1166.31z"/>
			<path class="st11" d="M1961.61,1203.46h-503.93c-4.53,0-8.2-3.67-8.2-8.2s3.67-8.2,8.2-8.2h503.93c4.53,0,8.2,3.67,8.2,8.2
				S1966.14,1203.46,1961.61,1203.46z"/>
			<path class="st11" d="M1596.21,1240.81h-138.33c-4.53,0-8.2-3.67-8.2-8.2s3.67-8.2,8.2-8.2h138.33c4.53,0,8.2,3.67,8.2,8.2
				S1600.74,1240.81,1596.21,1240.81z"/>
			<path class="st12" d="M2054.89,1032.91c-2.78-2.77-2.79-7.28-0.02-10.06c0.01-0.01,0.01-0.01,0.02-0.02l82.21-97.43l-5.73-42.09
				c-0.9-3.82,1.47-7.65,5.3-8.55c3.82-0.9,7.65,1.47,8.55,5.3c0.1,0.42,0.16,0.85,0.18,1.28l6.32,45.45
				c0.28,1.98-0.3,3.99-1.58,5.53l-84.38,99.8c-2.3,3.18-6.75,3.9-9.93,1.6C2055.49,1033.48,2055.18,1033.21,2054.89,1032.91z"/>
			<path class="st1" d="M1877.23,1223.62l-45.06-38.14l270.54-320.34c10.47-12.44,29.05-14.04,41.49-3.57c0,0,0.01,0.01,0.01,0.01
				l0,0c12.44,10.47,14.04,29.05,3.57,41.49c0,0-0.01,0.01-0.01,0.01L1877.23,1223.62z"/>
			<path class="st12" d="M1877.23,1223.62l-45.06-38.14l-25.49,63.04c-1.82,4.44,0.31,9.52,4.76,11.34
				c2.59,1.06,5.52,0.81,7.89-0.67L1877.23,1223.62z"/>
			
				<rect x="1988.63" y="998.56" transform="matrix(0.6452 -0.764 0.764 0.6452 -74.5463 1895.6846)" class="st12" width="30.24" height="59.09"/>
		</g>
		<circle class="st7" cx="1716.28" cy="949.34" r="656.84"/>
	</g>
	<g>
		<g>
			<path class="st13" d="M4658.46,2960.5H4551.9v-36.68h106.55c50.13,0,90.76-58.29,90.76-130.19s-40.64-130.19-90.76-130.19l0,0
				H4551.9v-36.4h106.55c64.2,0,116.24,74.65,116.24,166.74C4774.7,2885.85,4722.65,2960.5,4658.46,2960.5z"/>
			<path class="st14" d="M4048.2,2960.5h-106.55c-64.2,0-116.24-74.65-116.24-166.74c0-92.09,52.04-166.74,116.24-166.74h106.55
				v36.4h-106.55c-50.13,0-90.76,58.29-90.76,130.19s40.64,130.19,90.76,130.19h106.55V2960.5z"/>
			<path class="st1" d="M4300.05,3071.66c-62.88,0.15-125.55-10.2-186.76-30.85c-23.89-8.28-48.17-14.04-72.65-17.23
				c-6.33-0.61-12.18-5.05-16.08-12.23c-4.74-8.63-6.71-19.74-5.42-30.57c6.05-57.95,8.96-116.48,8.72-175.07
				c0.23-58.5-2.69-116.94-8.72-174.79c-1.41-11.27,0.72-22.86,5.81-31.68c3.97-7.17,9.9-11.52,16.27-11.95
				c46.56-3.67,92.53-16.67,136.58-38.63c39.3-20.07,80.55-31.13,122.24-32.79c41.72,1.84,82.97,13.09,122.25,33.35
				c44.05,21.96,90.02,34.96,136.58,38.63c6.37,0.42,12.31,4.78,16.27,11.95c4.86,8.66,6.9,19.89,5.62,30.85
				c-6.3,57.92-9.47,116.45-9.49,175.07c-0.25,58.59,2.67,117.12,8.72,175.07c1.28,10.83-0.69,21.93-5.42,30.57
				c-3.9,7.17-9.75,11.62-16.08,12.23c-24.48,3.19-48.76,8.94-72.65,17.23C4424.95,3061.35,4362.61,3071.7,4300.05,3071.66z"/>
			<path class="st8" d="M4300.05,2529.49c90.86,0,147.04,66.14,258.44,71.97c8.49,1.58,14.48,12.73,13.38,24.91
				c-0.09,0.97-0.22,1.94-0.4,2.88c-6.16,58.59-9.13,117.77-8.91,177.02c-0.28,59.15,2.63,118.24,8.72,176.74
				c2.24,11.85-2.64,24.06-10.9,27.27c-0.56,0.22-1.12,0.39-1.69,0.51c-66.06,5.28-123.02,46.96-258.63,46.96
				c-135.61,0-192.57-41.68-258.83-47.8c-8.46-1.87-14.26-13.23-12.95-25.36c0.09-0.82,0.21-1.63,0.36-2.43
				c6.17-58.68,9.15-117.96,8.91-177.3c0.26-58.96-2.66-117.86-8.72-176.18c-2.21-11.86,2.7-24.05,10.97-27.22
				c0.66-0.25,1.33-0.44,2.01-0.57c111.4-6.11,167.58-71.97,258.44-71.97 M4300.25,2501.15c-42.64,1.79-84.81,13.23-124.96,33.9
				c-43.3,21.61-88.49,34.42-134.26,38.07c-9.08,0.65-17.53,6.82-23.25,16.95c-6.6,11.68-9.42,26.84-7.75,41.68
				c5.93,57.12,8.78,114.82,8.52,172.57c0.12,58.33-2.92,116.59-9.11,174.24c-1.67,14.58,1,29.5,7.36,41.13
				c5.54,10.23,13.85,16.6,22.86,17.51c24.02,3.16,47.85,8.82,71.29,16.95c61.97,20.9,125.43,31.34,189.08,31.12
				c63.53,0.17,126.85-10.27,188.7-31.12c23.45-8.13,47.27-13.79,71.29-16.95c9.01-0.91,17.32-7.28,22.86-17.51
				c6.5-11.54,9.31-26.47,7.75-41.13c-6.02-57.3-8.93-115.18-8.72-173.13c-0.19-57.76,2.73-115.45,8.72-172.57
				c1.67-14.84-1.15-30.01-7.75-41.68c-5.72-10.13-14.17-16.3-23.25-16.95c-45.77-3.65-90.96-16.46-134.26-38.07
				c-40.27-20.73-82.58-32.17-125.34-33.9L4300.25,2501.15z"/>
			<path class="st8" d="M4300.05,2764.03h263.09c0-5.56,0-11.12,0-16.4c-49.98-9.45-192.38-34.74-263.09-34.74
				c-70.71,0-213.11,25.29-263.48,34.74c0,5.28,0,10.84,0,16.4H4300.05z"/>
			<path class="st8" d="M4032.12,2665.1c0,5,0,10.28,1.16,15.84c176.23-48.66,357.31-48.66,533.54,0c0-5.56,0-10.84,1.16-15.84
				c-45.72-19.17-195.09-79.2-267.93-79.2S4078.04,2645.93,4032.12,2665.1z"/>
			<path class="st8" d="M4300.05,3016.08c72.46,0,220.47-59.19,267.16-78.64c0-5,0-10.56-1.16-16.12
				c-87.69,23.71-176.76,35.43-265.99,35.01c-89.27-0.05-178.33-12.23-265.99-36.4c0,5.56,0,11.12-1.16,16.12
				C4079.59,2955.78,4227.6,3016.08,4300.05,3016.08z"/>
			<path class="st8" d="M4300.05,2887.97c70.52,0,213.11-25.29,263.09-34.74c0-5.28,0-10.56,0-16.4h-525.98c0,5.56,0,10.84,0,16.4
				C4086.95,2862.68,4229.53,2887.97,4300.05,2887.97z"/>
			<path class="st15" d="M4177.81,2549.22c-44.05,21.96-90.02,34.96-136.58,38.63c-6.37,0.42-12.31,4.78-16.27,11.95
				c-4.86,8.66-6.9,19.89-5.62,30.85c6.3,57.92,9.47,116.45,9.49,175.07c0.24,58.59-2.67,117.12-8.72,175.07
				c-1.28,10.83,0.69,21.93,5.42,30.57c3.9,7.17,9.75,11.62,16.08,12.23c24.48,3.19,48.76,8.94,72.65,17.23
				c60.89,20.54,123.24,30.89,185.79,30.85v-555.79C4258.34,2517.71,4217.08,2528.96,4177.81,2549.22z"/>
			<path class="st16" d="M4041.61,2601.74c111.4-6.11,167.58-71.97,258.44-71.97v-27.79c-42.64,1.79-84.81,13.23-124.96,33.9
				c-43.3,21.61-88.49,34.42-134.26,38.07c-9.08,0.65-17.53,6.82-23.25,16.95c-6.6,11.68-9.42,26.84-7.75,41.68
				c5.93,57.12,8.78,114.82,8.52,172.57c0.16,58.05-2.82,116.02-8.91,173.41c-1.67,14.58,1,29.5,7.36,41.13
				c5.54,10.23,13.85,16.6,22.86,17.51c24.02,3.16,47.85,8.82,71.29,16.95c61.97,20.9,125.43,31.34,189.08,31.12v-27.79
				c-135.61,0-192.57-41.96-258.83-48.08c-8.46-1.87-14.26-13.23-12.95-25.36c0.09-0.82,0.21-1.63,0.36-2.43
				c6.17-58.68,9.15-117.96,8.91-177.3c0.24-58.78-2.68-117.49-8.72-175.63c-1.92-11.97,3.3-23.89,11.64-26.64
				C4040.85,2601.93,4041.23,2601.83,4041.61,2601.74z"/>
			<path class="st14" d="M4036.97,2764.03h263.09v-51.13c-70.52,0-213.11,25.29-263.48,34.74
				C4036.77,2752.92,4036.97,2758.47,4036.97,2764.03z"/>
			<path class="st14" d="M4032.12,2665.1c0,5,0,10.28,1.16,15.84c87.92-24.24,177.24-36.43,266.77-36.4v-58.64
				C4227.21,2585.9,4078.04,2645.93,4032.12,2665.1z"/>
			<path class="st14" d="M4032.9,2936.05c46.69,19.45,193.73,78.64,267.16,78.64v-58.36c-89.27-0.05-178.33-12.24-265.99-36.4
				C4033.67,2925.77,4033.28,2931.05,4032.9,2936.05z"/>
			<path class="st14" d="M4036.97,2853.24c50.76,9.45,192.76,34.74,263.09,34.74v-51.13h-262.89
				C4037.16,2842.68,4036.97,2847.96,4036.97,2853.24z"/>
		</g>
		<circle class="st7" cx="4300.05" cy="2793.21" r="656.84"/>
	</g>
	<g>
		<g>
			<path class="st8" d="M4300.05,741.36c-267.09,0-483.63,69.66-483.63,155.44V792.9c0.4-85.78,216.74-155.24,483.63-155.24
				s483.63,69.66,483.63,155.44v103.69C4783.88,811.02,4567.34,741.36,4300.05,741.36z"/>
			<path class="st17" d="M4300.05,942.97c-267.09,0-483.63-69.66-483.63-155.44v103.69c0,85.78,216.54,155.44,483.63,155.44
				s483.63-69.66,483.63-155.44V787.53C4783.88,873.31,4567.34,942.97,4300.05,942.97z"/>
			<path class="st18" d="M4622.07,842.26l-49.56,8.56c-180.09,31.35-364.24,31.35-544.33,0l-49.56-8.56
				c-24.04-4.18-46.92,11.93-51.09,35.97c-0.44,2.52-0.66,5.06-0.65,7.62v189.27h746.93V885.85c0.03-24.4-19.73-44.21-44.13-44.24
				C4627.14,841.61,4624.59,841.83,4622.07,842.26z"/>
			<path class="st1" d="M4622.07,861.97l-49.56,8.56c-180.09,31.35-364.24,31.35-544.33,0l-49.56-8.56
				c-24.04-4.18-46.92,11.93-51.09,35.97c-0.44,2.52-0.66,5.06-0.65,7.62v189.27h746.93V905.55c0.03-24.4-19.73-44.21-44.13-44.24
				C4627.14,861.31,4624.59,861.53,4622.07,861.97z"/>
			<path class="st18" d="M4590.83,969.44h-581.15c-45.68,0.11-82.68,37.11-82.79,82.79v81c0.11,78.22,63.49,141.59,141.7,141.7
				h73.44c78.22-0.11,141.59-63.49,141.7-141.7c0-9.12,7.39-16.52,16.51-16.53c9.12,0,16.52,7.39,16.53,16.51c0,0,0,0.01,0,0.01
				c-0.44,78.37,62.73,142.26,141.1,142.7c0.47,0,0.93,0,1.4,0h73.44c78.37-0.44,141.55-64.33,141.11-142.69c0,0,0,0,0,0v-80.8
				C4673.82,1006.59,4636.66,969.44,4590.83,969.44z"/>
			<path class="st19" d="M4590.83,995.51h-581.15c-31.44,0-56.92,25.48-56.92,56.92l0,0v80.8c0.11,63.82,51.82,115.52,115.63,115.63
				h73.44c63.97,0.11,115.92-51.66,116.03-115.63c0,0,0,0,0,0c-1.61-23.47,16.11-43.79,39.58-45.4
				c23.47-1.61,43.79,16.11,45.4,39.58c0.13,1.94,0.13,3.88,0,5.82c-0.33,64.08,51.35,116.3,115.43,116.63c0.33,0,0.67,0,1,0h73.44
				c63.97-0.44,115.47-52.65,115.04-116.62c0,0,0,0,0-0.01v-80.8C4647.75,1020.99,4622.26,995.51,4590.83,995.51L4590.83,995.51z"/>
			<path class="st20" d="M4459.27,1249.86h73.44c59.28-0.09,108.92-44.93,115.04-103.89h-3.98c-96.32,17.75-193.86,28-291.77,30.65
				C4369.37,1220.71,4411.88,1249.73,4459.27,1249.86z"/>
			<path class="st20" d="M4249.3,1177.42c-97.9-2.65-195.45-12.9-291.77-30.65h-3.98c6.11,58.96,55.76,103.8,115.04,103.89h73.44
				C4189.4,1250.48,4231.88,1221.47,4249.3,1177.42z"/>
			<path class="st1" d="M4356.77,755.09h-113.04c-7.14,0-12.94-5.79-12.94-12.94V635.68c0-7.14,5.79-12.94,12.94-12.94h113.04
				c7.14,0,12.94,5.79,12.94,12.94v106.88C4369.5,749.54,4363.77,755.09,4356.77,755.09z M4257.26,729.02h86.58v-80.41h-86.97
				L4257.26,729.02z"/>
			<path class="st21" d="M4189.79,1239.51v-244h-39.8v253.95C4163.75,1248.57,4177.23,1245.2,4189.79,1239.51z"/>
			<path class="st21" d="M4128.3,1249.86V995.51h-94.54v248.98c11.27,3.57,23.01,5.38,34.83,5.37H4128.3z"/>
			<path class="st1" d="M4517.19,1249.86h14.73c21.5,0.11,42.6-5.82,60.9-17.12V995.71h-75.63V1249.86z"/>
			<path class="st1" d="M4550.03,1248.27c9.88-1.53,19.51-4.34,28.66-8.36l0,0c4.73-2.08,9.32-4.48,13.73-7.16v-77.62
				c-25.08,3.98-50.29,7.43-75.63,10.35v84.58h14.73c4.99,0,9.98-0.34,14.93-1L4550.03,1248.27z"/>
		</g>
		<circle class="st7" cx="4300.05" cy="949.34" r="656.84"/>
	</g>
	<rect x="1337.72" y="1709.24" class="st22" width="757.12" height="280.79"/>
	<text transform="matrix(1 0 0 1 1200.1494 1881.3545)" class="st17 st23 st24">Check out</text>
	<text transform="matrix(1 0 0 1 4065.5518 3703.0703)" class="st17 st23 st24">Help</text>
	<text transform="matrix(1 0 0 1 3974.957 1881.3545)" class="st17 st23 st24">Safety</text>
	<text transform="matrix(1 0 0 1 1307.5659 3703.0703)" class="st17 st23 st24">On time</text>
</g>
</svg>
