<?xml version="1.0" encoding="utf-8"?>
<!-- Generator: Adobe Illustrator 24.1.3, SVG Export Plug-In . SVG Version: 6.00 Build 0)  -->
<svg version="1.1" id="Layer_1" xmlns="http://www.w3.org/2000/svg" xmlns:xlink="http://www.w3.org/1999/xlink" x="0px" y="0px"
	 viewBox="0 0 865 768" style="enable-background:new 0 0 865 768;" xml:space="preserve">
<style type="text/css">
	.st0{fill:#F8ECF5;}
	.st1{fill:#FDD140;}
	.st2{fill:#6B447C;}
	.st3{fill:#F8F8F9;}
	.st4{fill:#CFD5D6;}
	.st5{fill:#784C89;}
	.st6{fill:#CF96C3;}
	.st7{fill:none;stroke:#6B427A;stroke-width:6;stroke-miterlimit:10;}
	.st8{fill:#9964AA;}
	.st9{fill:#93A6A8;}
	.st10{fill:#C2CBCC;}
	.st11{fill:#AAB8B9;}
	.st12{fill:#BACFD0;}
	.st13{fill:#87559A;}
	.st14{fill:#AA76B3;}
	.st15{fill:#FEE84D;}
	.st16{fill:#AC78B4;}
	.st17{fill:#6B427A;}
	.st18{fill:#6B437B;}
	.st19{fill:#FEE499;}
	.st20{fill:#FFD45C;}
	.st21{fill:#FEE9AD;}
	.st22{fill:none;}
	.st23{font-family:'FranklinGothic-Medium';}
	.st24{font-size:48px;}
</style>
<g>
	<g>
		<g>
			<polygon class="st0" points="258.37,469.8 90.51,469.8 90.51,622.68 232.09,622.68 258.37,596.4 			"/>
			<polygon class="st1" points="258.37,469.8 90.51,469.8 90.51,496.19 258.37,496.19 258.37,469.8 			"/>
			<circle class="st2" cx="129.23" cy="512.35" r="3.79"/>
			<circle class="st2" cx="220.55" cy="512.35" r="3.79"/>
			<circle class="st2" cx="152.07" cy="512.35" r="3.79"/>
			<circle class="st2" cx="197.71" cy="512.35" r="3.79"/>
			<circle class="st2" cx="243.35" cy="512.35" r="3.79"/>
			<circle class="st2" cx="174.87" cy="512.35" r="3.79"/>
			<circle class="st2" cx="106.42" cy="534.81" r="3.79"/>
			<circle class="st2" cx="129.23" cy="534.81" r="3.79"/>
			<circle class="st2" cx="220.55" cy="534.81" r="3.79"/>
			<circle class="st2" cx="152.07" cy="534.81" r="3.79"/>
			<circle class="st2" cx="197.71" cy="534.81" r="3.79"/>
			<circle class="st2" cx="243.35" cy="534.81" r="3.79"/>
			<circle class="st2" cx="174.87" cy="534.81" r="3.79"/>
			<circle class="st2" cx="106.42" cy="558.37" r="3.79"/>
			<circle class="st2" cx="129.23" cy="558.37" r="3.75"/>
			<circle class="st2" cx="220.55" cy="558.37" r="3.75"/>
			<circle class="st2" cx="152.07" cy="558.37" r="3.79"/>
			<circle class="st2" cx="197.71" cy="558.37" r="3.75"/>
			<circle class="st2" cx="243.35" cy="558.37" r="3.79"/>
			<circle class="st2" cx="174.87" cy="558.37" r="3.75"/>
			<circle class="st2" cx="106.42" cy="581" r="3.79"/>
			<circle class="st2" cx="129.23" cy="581" r="3.79"/>
			<circle class="st2" cx="220.55" cy="581" r="3.79"/>
			<circle class="st2" cx="152.07" cy="581" r="3.79"/>
			<circle class="st2" cx="197.71" cy="581" r="3.79"/>
			<circle class="st2" cx="243.35" cy="581" r="3.79"/>
			<circle class="st2" cx="174.87" cy="581" r="3.79"/>
			<circle class="st2" cx="106.42" cy="603.46" r="3.79"/>
			<circle class="st2" cx="129.23" cy="603.46" r="3.75"/>
			<circle class="st2" cx="152.07" cy="603.46" r="3.79"/>
			<circle class="st2" cx="174.87" cy="603.46" r="3.75"/>
			<circle class="st3" cx="135.6" cy="483.45" r="3.79"/>
			<path class="st3" d="M158.4,479.69h-11.64c-2.08,0.2-3.61,2.05-3.41,4.13c0.17,1.81,1.6,3.24,3.41,3.41h11.64
				c2.08,0.2,3.93-1.33,4.13-3.41c0.2-2.08-1.33-3.93-3.41-4.13C158.89,479.67,158.64,479.67,158.4,479.69z"/>
			<path class="st3" d="M189.1,479.69h-6.37c-2.08,0.2-3.61,2.05-3.41,4.13c0.17,1.81,1.6,3.24,3.41,3.41h6.41
				c2.08,0.2,3.93-1.33,4.13-3.41s-1.33-3.93-3.41-4.13c-0.24-0.02-0.48-0.02-0.72,0H189.1z"/>
			<path class="st3" d="M213.28,479.69H201.6c-2.08,0.2-3.61,2.05-3.41,4.13c0.17,1.81,1.6,3.24,3.41,3.41h11.64
				c2.08,0.2,3.93-1.33,4.13-3.41c0.2-2.08-1.33-3.93-3.41-4.13c-0.24-0.02-0.48-0.02-0.72,0H213.28z"/>
			<circle class="st3" cx="170.53" cy="483.45" r="3.79"/>
			<circle class="st2" cx="107.39" cy="478.14" r="7.17"/>
			<path class="st4" d="M103.6,465.84v11.64c0.2,2.08,2.05,3.61,4.13,3.41c1.81-0.17,3.24-1.6,3.41-3.41v-11.64
				c0.2-2.08-1.33-3.93-3.41-4.13s-3.93,1.33-4.13,3.41C103.58,465.36,103.58,465.6,103.6,465.84z"/>
			<circle class="st2" cx="241.49" cy="478.14" r="7.17"/>
			<path class="st4" d="M237.7,465.84v11.64c0.2,2.08,2.05,3.61,4.13,3.41c1.81-0.17,3.24-1.6,3.41-3.41v-11.64
				c0.2-2.08-1.33-3.93-3.41-4.13c-2.08-0.2-3.93,1.33-4.13,3.41C237.68,465.36,237.68,465.6,237.7,465.84z"/>
			<polygon class="st5" points="232.09,596.4 258.37,596.4 232.09,622.68 207.46,622.68 			"/>
			<polygon class="st6" points="232.09,596.4 258.37,596.4 232.09,622.68 			"/>
		</g>
		<circle class="st7" cx="174.44" cy="542.19" r="131"/>
	</g>
	<g>
		<g>
			<rect x="103" y="85.88" class="st8" width="141.34" height="178.35"/>
			<rect x="110.73" y="93.57" class="st3" width="125.93" height="162.97"/>
			<path class="st9" d="M194.95,77.33h-13.28v-3.7c-0.06-1.68-1.47-3-3.15-2.96h-9.74c-1.7,0-3.07,1.38-3.07,3.07c0,0,0,0,0,0v3.59
				h-13.32c-2.33,0.02-4.23,1.85-4.34,4.18v16.63l3.67,3.07l3.67-3.07l3.67,3.07l3.7-3.07l3.67,3.07l3.67-3.07l3.67,3.07l3.67-3.07
				l3.67,3.07l3.67-3.07l3.67,3.07l3.67-3.07l3.67,3.07l3.67-3.07V81.5C199.3,79.13,197.32,77.28,194.95,77.33z M173.67,77.33
				c-1.24,0-2.25-1.01-2.25-2.25s1.01-2.25,2.25-2.25c1.24,0,2.25,1.01,2.25,2.25c0,0,0,0,0,0c-0.04,1.21-1.04,2.17-2.25,2.17V77.33
				z"/>
			<rect x="148.13" y="81.66" class="st10" width="51.12" height="5.75"/>
			<circle class="st1" cx="173.67" cy="125.02" r="12.73"/>
			<polygon class="st3" points="182.62,122.02 176.67,122.02 176.67,116.07 170.71,116.07 170.71,122.02 164.72,122.02 
				164.72,127.97 170.71,127.97 170.71,133.96 176.67,133.96 176.67,127.97 182.62,127.97 			"/>
			<path class="st11" d="M219.03,150.83h-96.17c-0.9,0-1.64-0.73-1.64-1.64s0.73-1.64,1.64-1.64h96.17c0.9,0,1.64,0.73,1.64,1.64
				S219.94,150.83,219.03,150.83z"/>
			<path class="st11" d="M213.71,158.28h-90.65c-0.9,0-1.64-0.73-1.64-1.64s0.73-1.64,1.64-1.64h90.65c0.9,0,1.64,0.73,1.64,1.64
				S214.62,158.28,213.71,158.28z"/>
			<path class="st11" d="M221.01,165.69h-98.14c-0.9,0-1.64-0.73-1.64-1.64c0-0.9,0.73-1.64,1.64-1.64h98.14
				c0.9,0,1.64,0.73,1.64,1.64C222.64,164.96,221.91,165.69,221.01,165.69z"/>
			<path class="st11" d="M219.03,173.14h-96.17c-0.9,0-1.64-0.73-1.64-1.64c0-0.9,0.73-1.64,1.64-1.64h96.17
				c0.9,0,1.64,0.73,1.64,1.64C220.67,172.41,219.94,173.14,219.03,173.14z"/>
			<path class="st11" d="M222.94,180.55H122.87c-0.9,0-1.64-0.73-1.64-1.64c0-0.9,0.73-1.64,1.64-1.64h100.07
				c0.9,0,1.64,0.73,1.64,1.64C224.57,179.82,223.84,180.55,222.94,180.55L222.94,180.55z"/>
			<path class="st11" d="M215.57,187.92h-92.7c-0.9,0-1.64-0.73-1.64-1.64s0.73-1.64,1.64-1.64h92.7c0.9,0,1.64,0.73,1.64,1.64
				S216.47,187.92,215.57,187.92z"/>
			<path class="st11" d="M225.14,195.41H122.87c-0.9,0-1.64-0.73-1.64-1.64s0.73-1.64,1.64-1.64h102.28c0.9,0,1.64,0.73,1.64,1.64
				S226.05,195.41,225.14,195.41z"/>
			<path class="st11" d="M221.2,202.86h-98.34c-0.9,0-1.64-0.73-1.64-1.64s0.73-1.64,1.64-1.64h98.34c0.9,0,1.64,0.73,1.64,1.64
				S222.11,202.86,221.2,202.86z"/>
			<path class="st11" d="M215.49,210.27h-92.62c-0.9,0-1.64-0.73-1.64-1.64s0.73-1.64,1.64-1.64h92.62c0.9,0,1.64,0.73,1.64,1.64
				S216.39,210.27,215.49,210.27z"/>
			<path class="st11" d="M214.46,217.72h-91.6c-0.9,0-1.64-0.73-1.64-1.64s0.73-1.64,1.64-1.64h91.6c0.9,0,1.64,0.73,1.64,1.64
				S215.37,217.72,214.46,217.72z"/>
			<path class="st11" d="M223.37,225.13h-100.5c-0.9,0-1.64-0.73-1.64-1.64s0.73-1.64,1.64-1.64h100.5c0.9,0,1.64,0.73,1.64,1.64
				S224.27,225.13,223.37,225.13z"/>
			<path class="st11" d="M150.49,232.58h-27.59c-0.9,0-1.64-0.73-1.64-1.64s0.73-1.64,1.64-1.64h27.59c0.9,0,1.64,0.73,1.64,1.64
				S151.4,232.58,150.49,232.58z"/>
			<path class="st12" d="M241.97,191.11c-0.56-0.55-0.56-1.45,0-2.01c0,0,0,0,0,0l16.4-19.43l-1.14-8.4
				c-0.18-0.76,0.29-1.53,1.06-1.71s1.53,0.29,1.71,1.06c0.02,0.08,0.03,0.17,0.04,0.26l1.26,9.07c0.06,0.4-0.06,0.8-0.32,1.1
				l-16.83,19.9c-0.46,0.64-1.35,0.78-1.98,0.32C242.09,191.23,242.03,191.17,241.97,191.11z"/>
			<path class="st1" d="M206.54,229.15l-8.99-7.61l53.96-63.89c2.09-2.48,5.79-2.8,8.27-0.71c0,0,0,0,0,0l0,0
				c2.48,2.09,2.8,5.79,0.71,8.27c0,0,0,0,0,0L206.54,229.15z"/>
			<path class="st12" d="M206.54,229.15l-8.99-7.61l-5.08,12.57c-0.36,0.89,0.06,1.9,0.95,2.26c0.52,0.21,1.1,0.16,1.57-0.13
				L206.54,229.15z"/>
			
				<rect x="228.76" y="184.26" transform="matrix(0.6452 -0.764 0.764 0.6452 -63.0468 244.548)" class="st12" width="6.03" height="11.78"/>
		</g>
		<circle class="st7" cx="174.44" cy="174.45" r="131"/>
	</g>
	<g>
		<g>
			<path class="st13" d="M761.23,575.55h-21.25v-7.32h21.25c10,0,18.1-11.63,18.1-25.97s-8.1-25.97-18.1-25.97l0,0h-21.25v-7.26
				h21.25c12.8,0,23.18,14.89,23.18,33.25S774.03,575.55,761.23,575.55z"/>
			<path class="st14" d="M639.52,575.55h-21.25c-12.8,0-23.18-14.89-23.18-33.25s10.38-33.25,23.18-33.25h21.25v7.26h-21.25
				c-10,0-18.1,11.63-18.1,25.97c0,14.34,8.1,25.97,18.1,25.97h21.25V575.55z"/>
			<path class="st1" d="M689.75,597.72c-12.54,0.03-25.04-2.03-37.25-6.15c-4.76-1.65-9.61-2.8-14.49-3.44
				c-1.26-0.12-2.43-1.01-3.21-2.44c-0.94-1.72-1.34-3.94-1.08-6.1c1.21-11.56,1.79-23.23,1.74-34.92
				c0.05-11.67-0.54-23.32-1.74-34.86c-0.28-2.25,0.14-4.56,1.16-6.32c0.79-1.43,1.97-2.3,3.25-2.38c9.29-0.73,18.46-3.32,27.24-7.7
				c7.84-4,16.06-6.21,24.38-6.54c8.32,0.37,16.55,2.61,24.38,6.65c8.78,4.38,17.95,6.97,27.24,7.7c1.27,0.08,2.45,0.95,3.25,2.38
				c0.97,1.73,1.38,3.97,1.12,6.15c-1.26,11.55-1.89,23.23-1.89,34.92c-0.05,11.69,0.53,23.36,1.74,34.92
				c0.26,2.16-0.14,4.37-1.08,6.1c-0.78,1.43-1.94,2.32-3.21,2.44c-4.88,0.64-9.72,1.78-14.49,3.44
				C714.66,595.67,702.23,597.73,689.75,597.72z"/>
			<path class="st8" d="M689.75,489.59c18.12,0,29.33,13.19,51.54,14.35c1.69,0.31,2.89,2.54,2.67,4.97
				c-0.02,0.19-0.04,0.39-0.08,0.58c-1.23,11.68-1.82,23.49-1.78,35.3c-0.06,11.8,0.53,23.58,1.74,35.25
				c0.45,2.36-0.53,4.8-2.17,5.44c-0.11,0.04-0.22,0.08-0.34,0.1c-13.18,1.05-24.54,9.37-51.58,9.37s-38.41-8.31-51.62-9.53
				c-1.69-0.37-2.84-2.64-2.58-5.06c0.02-0.16,0.04-0.32,0.07-0.48c1.23-11.7,1.82-23.53,1.78-35.36
				c0.05-11.76-0.53-23.51-1.74-35.14c-0.44-2.37,0.54-4.8,2.19-5.43c0.13-0.05,0.27-0.09,0.4-0.11
				c22.22-1.22,33.42-14.35,51.54-14.35 M689.79,483.94c-8.5,0.36-16.91,2.64-24.92,6.76c-8.64,4.31-17.65,6.86-26.78,7.59
				c-1.81,0.13-3.5,1.36-4.64,3.38c-1.32,2.33-1.88,5.35-1.55,8.31c1.18,11.39,1.75,22.9,1.7,34.42
				c0.02,11.63-0.58,23.25-1.82,34.75c-0.33,2.91,0.2,5.88,1.47,8.2c1.1,2.04,2.76,3.31,4.56,3.49c4.79,0.63,9.54,1.76,14.22,3.38
				c12.36,4.17,25.01,6.25,37.71,6.21c12.67,0.03,25.3-2.05,37.63-6.21c4.68-1.62,9.43-2.75,14.22-3.38
				c1.8-0.18,3.45-1.45,4.56-3.49c1.3-2.3,1.86-5.28,1.55-8.2c-1.2-11.43-1.78-22.97-1.74-34.53c-0.04-11.52,0.54-23.03,1.74-34.42
				c0.33-2.96-0.23-5.98-1.55-8.31c-1.14-2.02-2.83-3.25-4.64-3.38c-9.13-0.73-18.14-3.28-26.78-7.59c-8.03-4.13-16.47-6.42-25-6.76
				L689.79,483.94z"/>
			<path class="st8" d="M689.75,536.37h52.47c0-1.11,0-2.22,0-3.27c-9.97-1.88-38.37-6.93-52.47-6.93s-42.5,5.04-52.55,6.93
				c0,1.05,0,2.16,0,3.27H689.75z"/>
			<path class="st8" d="M636.31,516.64c0,1,0,2.05,0.23,3.16c35.15-9.7,71.26-9.7,106.41,0c0-1.11,0-2.16,0.23-3.16
				c-9.12-3.82-38.91-15.8-53.44-15.8S645.47,512.81,636.31,516.64z"/>
			<path class="st8" d="M689.75,586.64c14.45,0,43.97-11.81,53.28-15.68c0-1,0-2.11-0.23-3.21c-17.49,4.73-35.25,7.07-53.05,6.98
				c-17.8-0.01-35.57-2.44-53.05-7.26c0,1.11,0,2.22-0.23,3.21C645.78,574.61,675.3,586.64,689.75,586.64z"/>
			<path class="st8" d="M689.75,561.09c14.06,0,42.5-5.04,52.47-6.93c0-1.05,0-2.11,0-3.27h-104.9c0,1.11,0,2.16,0,3.27
				C647.25,556.04,675.69,561.09,689.75,561.09z"/>
			<path class="st15" d="M665.37,493.53c-8.78,4.38-17.95,6.97-27.24,7.7c-1.27,0.08-2.45,0.95-3.25,2.38
				c-0.97,1.73-1.38,3.97-1.12,6.15c1.26,11.55,1.89,23.23,1.89,34.92c0.05,11.69-0.53,23.36-1.74,34.92
				c-0.26,2.16,0.14,4.37,1.08,6.1c0.78,1.43,1.94,2.32,3.21,2.44c4.88,0.64,9.72,1.78,14.49,3.44c12.14,4.1,24.58,6.16,37.05,6.15
				V486.88C681.43,487.24,673.2,489.49,665.37,493.53z"/>
			<path class="st16" d="M638.21,504c22.22-1.22,33.42-14.35,51.54-14.35v-5.54c-8.5,0.36-16.91,2.64-24.92,6.76
				c-8.64,4.31-17.65,6.86-26.78,7.59c-1.81,0.13-3.5,1.36-4.64,3.38c-1.32,2.33-1.88,5.35-1.55,8.31
				c1.18,11.39,1.75,22.9,1.7,34.42c0.03,11.58-0.56,23.14-1.78,34.58c-0.33,2.91,0.2,5.88,1.47,8.2c1.1,2.04,2.76,3.31,4.56,3.49
				c4.79,0.63,9.54,1.76,14.22,3.38c12.36,4.17,25.01,6.25,37.71,6.21v-5.54c-27.05,0-38.41-8.37-51.62-9.59
				c-1.69-0.37-2.84-2.64-2.58-5.06c0.02-0.16,0.04-0.32,0.07-0.48c1.23-11.7,1.82-23.53,1.78-35.36
				c0.05-11.72-0.53-23.43-1.74-35.03c-0.38-2.39,0.66-4.77,2.32-5.31C638.05,504.04,638.13,504.02,638.21,504z"/>
			<path class="st14" d="M637.28,536.37h52.47v-10.2c-14.06,0-42.5,5.04-52.55,6.93C637.24,534.15,637.28,535.26,637.28,536.37z"/>
			<path class="st14" d="M636.31,516.64c0,1,0,2.05,0.23,3.16c17.53-4.84,35.35-7.27,53.2-7.26v-11.69
				C675.22,500.84,645.47,512.81,636.31,516.64z"/>
			<path class="st14" d="M636.47,570.68c9.31,3.88,38.64,15.68,53.28,15.68v-11.64c-17.8-0.01-35.57-2.44-53.05-7.26
				C636.62,568.62,636.55,569.68,636.47,570.68z"/>
			<path class="st14" d="M637.28,554.16c10.12,1.88,38.44,6.93,52.47,6.93v-10.2h-52.43C637.32,552.05,637.28,553.11,637.28,554.16z
				"/>
		</g>
		<circle class="st7" cx="689.75" cy="542.19" r="131"/>
	</g>
	<g>
		<g>
			<path class="st8" d="M689.75,132.97c-53.27,0-96.45,13.89-96.45,31v-20.72c0.08-17.11,43.23-30.96,96.45-30.96
				s96.45,13.89,96.45,31v20.68C786.24,146.86,743.06,132.97,689.75,132.97z"/>
			<path class="st17" d="M689.75,173.17c-53.27,0-96.45-13.89-96.45-31v20.68c0,17.11,43.19,31,96.45,31
				c53.27,0,96.45-13.89,96.45-31v-20.68C786.24,159.28,743.06,173.17,689.75,173.17z"/>
			<path class="st18" d="M753.97,153.09l-9.88,1.71c-35.92,6.25-72.64,6.25-108.56,0l-9.88-1.71c-4.79-0.83-9.36,2.38-10.19,7.17
				c-0.09,0.5-0.13,1.01-0.13,1.52v37.75h148.97v-37.75c0.01-4.87-3.93-8.82-8.8-8.82C754.98,152.96,754.48,153,753.97,153.09z"/>
			<path class="st1" d="M753.97,157.02l-9.88,1.71c-35.92,6.25-72.64,6.25-108.56,0l-9.88-1.71c-4.79-0.83-9.36,2.38-10.19,7.17
				c-0.09,0.5-0.13,1.01-0.13,1.52v37.75h148.97v-37.75c0.01-4.87-3.93-8.82-8.8-8.82C754.98,156.89,754.48,156.93,753.97,157.02z"
				/>
			<path class="st18" d="M747.74,178.45h-115.9c-9.11,0.02-16.49,7.4-16.51,16.51v16.16c0.02,15.6,12.66,28.24,28.26,28.26h14.65
				c15.6-0.02,28.24-12.66,28.26-28.26c0-1.82,1.47-3.3,3.29-3.3c1.82,0,3.3,1.47,3.3,3.29c0,0,0,0,0,0
				c-0.09,15.63,12.51,28.37,28.14,28.46c0.09,0,0.19,0,0.28,0h14.65c15.63-0.09,28.23-12.83,28.14-28.46c0,0,0,0,0,0v-16.12
				C764.29,185.86,756.88,178.45,747.74,178.45z"/>
			<path class="st19" d="M747.74,183.65h-115.9c-6.27,0-11.35,5.08-11.35,11.35l0,0v16.12c0.02,12.73,10.33,23.04,23.06,23.06h14.65
				c12.76,0.02,23.12-10.3,23.14-23.06c0,0,0,0,0,0c-0.32-4.68,3.21-8.73,7.89-9.05c4.68-0.32,8.73,3.21,9.05,7.89
				c0.03,0.39,0.03,0.77,0,1.16c-0.07,12.78,10.24,23.19,23.02,23.26c0.07,0,0.13,0,0.2,0h14.65c12.76-0.09,23.03-10.5,22.94-23.26
				c0,0,0,0,0,0v-16.12C759.09,188.74,754.01,183.65,747.74,183.65L747.74,183.65z"/>
			<path class="st20" d="M721.5,234.38h14.65c11.82-0.02,21.72-8.96,22.94-20.72h-0.79c-19.21,3.54-38.66,5.58-58.19,6.11
				C703.57,228.57,712.05,234.36,721.5,234.38z"/>
			<path class="st20" d="M679.63,219.93c-19.53-0.53-38.98-2.57-58.19-6.11h-0.79c1.22,11.76,11.12,20.7,22.94,20.72h14.65
				C667.68,234.5,676.15,228.72,679.63,219.93z"/>
			<path class="st1" d="M701.06,135.7h-22.55c-1.42,0-2.58-1.16-2.58-2.58v-21.24c0-1.42,1.16-2.58,2.58-2.58h22.55
				c1.42,0,2.58,1.16,2.58,2.58v21.32C703.6,134.6,702.46,135.71,701.06,135.7z M681.22,130.5h17.27v-16.04h-17.35L681.22,130.5z"/>
			<path class="st21" d="M667.76,232.32v-48.66h-7.94v50.65C662.57,234.12,665.25,233.45,667.76,232.32z"/>
			<path class="st21" d="M655.49,234.38v-50.73h-18.85v49.66c2.25,0.71,4.59,1.07,6.95,1.07H655.49z"/>
			<path class="st1" d="M733.06,234.38h2.94c4.29,0.02,8.5-1.16,12.15-3.41v-47.27h-15.08V234.38z"/>
			<path class="st1" d="M739.6,234.06c1.97-0.3,3.89-0.86,5.72-1.67l0,0c0.94-0.42,1.86-0.89,2.74-1.43v-15.48
				c-5,0.79-10.03,1.48-15.08,2.06v16.87h2.94c1,0,1.99-0.07,2.98-0.2L739.6,234.06z"/>
		</g>
		<circle class="st7" cx="689.75" cy="174.45" r="131"/>
	</g>
	<rect x="98.94" y="326" class="st22" width="151" height="56"/>
	<text transform="matrix(1 0 0 1 71.5028 360.3252)" class="st17 st23 st24">Check out</text>
	<text transform="matrix(1 0 0 1 642.9805 723.6504)" class="st17 st23 st24">Help</text>
	<text transform="matrix(1 0 0 1 624.9102 360.3252)" class="st17 st23 st24">Safety</text>
	<text transform="matrix(1 0 0 1 92.9247 723.6504)" class="st17 st23 st24">On time</text>
</g>
</svg>
